<?xml version="1.0" encoding="UTF-8"?>
<svg xmlns="http://www.w3.org/2000/svg" version="1.1" viewBox="0 0 504 22.6">
  <defs>
    <style>
      .cls-1 {
        fill: currentColor;
      }

      .cls-2 {
        fill: currentColor;
        stroke: currentColor;
        stroke-miterlimit: 10;
      }
    </style>
  </defs>
  <!-- Generator: Adobe Illustrator 28.6.0, SVG Export Plug-In . SVG Version: 1.2.0 Build 709)  -->
  <g>
    <g id="Layer_1">
      <g>
        <path class="cls-1" d="M19.4,6.8h-2.7V0l-6.5,6.1V0h-1.1v6.1L2.7,0v6.8H0v9.8h2.7v6.1l6.5-5.8v5.8h1.1v-5.8l6.5,5.8v-6.1h2.7V6.8ZM15.7,2.5v4.3h-4.6l4.6-4.3ZM3.8,2.5l4.6,4.3H3.8V2.5ZM1.1,15.4v-7.6h7.2l-5.7,5.2v2.4h-1.6,0ZM3.7,13.5l5.4-5v6.8l-5.4,4.8v-6.7h0ZM15.7,20.2l-5.4-4.8v-6.8l5.4,5v6.7h0ZM18.4,15.4h-1.6v-2.4l-5.7-5.2h7.2v7.6Z"/>
        <path class="cls-1" d="M49.6,6.8h.8v1.6h-1c-.8,0-1.4.2-1.7.6-.4.4-.6,1-.6,1.8v5.2h-1.6V6.8h1.6v1.5c0,0,0,.1.1.1s0,0,.1,0c0,0,0,0,0-.1.3-1,1.1-1.4,2.3-1.4h0ZM59.9,8.7c.4.7.6,1.6.6,2.7s-.2,1.9-.6,2.7c-.4.7-.9,1.3-1.6,1.6-.7.4-1.4.5-2.1.5-1.5,0-2.5-.6-3.1-1.8,0,0-.1-.1-.2-.1s-.1,0-.1.1v4.9h-1.6V6.8h1.6v1.6c0,0,0,.1.1.1s.1,0,.2-.1c.6-1.2,1.7-1.8,3.1-1.8s1.5.2,2.1.5c.7.4,1.2.9,1.6,1.6ZM58.9,11.4c0-1.1-.3-1.9-.9-2.5-.6-.6-1.3-.9-2.3-.9s-1.7.3-2.3.9c-.6.6-.8,1.4-.8,2.5s.2,1.9.8,2.5c.6.6,1.3.9,2.3.9s1.7-.3,2.3-.9c.6-.6.9-1.4.9-2.5ZM33.9,8.8c.4.7.6,1.6.6,2.7s-.2,1.9-.6,2.7-.9,1.3-1.6,1.6c-.7.4-1.4.5-2.1.5-1.5,0-2.5-.6-3.1-1.8,0,0-.1-.1-.2-.1s-.1,0-.1.1v4.9h-1.6V6.8h1.6v1.6c0,0,0,.1.1.1s.1,0,.2-.1c.6-1.2,1.7-1.8,3.1-1.8s1.5.2,2.1.5c.7.4,1.2.9,1.6,1.6h0ZM32.9,11.4c0-1.1-.3-1.9-.9-2.5-.6-.6-1.3-.9-2.3-.9s-1.7.3-2.3.9c-.6.6-.8,1.4-.8,2.5s.2,1.9.8,2.5c.6.6,1.3.9,2.3.9s1.7-.3,2.3-.9c.6-.6.9-1.4.9-2.5ZM42.6,13.1h1.7c-.2.9-.7,1.6-1.4,2.2-.7.6-1.7.9-2.9.9s-1.8-.2-2.5-.6c-.7-.4-1.3-1-1.7-1.7-.4-.7-.6-1.6-.6-2.6s.2-1.8.6-2.6c.4-.7.9-1.3,1.6-1.7.7-.4,1.5-.6,2.4-.6s1.7.2,2.4.6c.6.4,1.1.9,1.4,1.5.3.6.5,1.3.5,2.1v1.1h-7.2c0,.9.4,1.6.9,2.2.6.5,1.3.8,2.2.8s1.3-.2,1.7-.5c.4-.3.7-.7.9-1.3ZM36.8,10.5h5.5c0-.8-.2-1.4-.6-1.9-.4-.5-1-.7-1.9-.7s-1.5.2-2,.7c-.5.4-.8,1.1-1,1.9h0ZM61.7,16h1.6V3.3h-1.6v12.7h0ZM83.5,5.8h1.8v-2h-1.8v2ZM90,14.6c-.3,0-.5,0-.5,0s-.1,0-.2,0c0,0,0-.1,0-.2s0-.2,0-.5c0-.3,0-.7,0-1.3v-4.4h2.2l-.4-1.3h-1.8v-2.5h-1.6v2.5h-1.7v1.3h1.7v4.8c0,1,.2,1.8.7,2.3.5.5,1.2.7,2.2.7h1.2v-1.4h-.6c-.6,0-1,0-1.3,0h0ZM99.2,6.8l-2.6,7.7c0,0,0,.2-.3.2s-.2-.1-.3-.2l-2.6-7.7h-1.6l3,9.2h1.1c0,0,.1,0,.2,0,0,0,0,0,0,0,0,0,0,.2,0,.3l-.5,1.3c0,.2-.2.3-.4.3s-.2,0-.5,0c-.3,0-.6,0-1,0h-1.3v1.4h1.7c1,0,1.6-.2,2.1-.5.5-.3.9-.9,1.2-1.8l3.3-9.9v-.4h-1.5ZM78.4,10.2l-2.5-3.4h-1.7v.4l3,4-3.6,4.5v.4h1.8l2.9-3.7,2.7,3.7h1.7v-.4l-3.1-4.2,3.4-4.2v-.4h-1.8l-2.7,3.4h0ZM83.7,16h1.6V6.8h-1.6v9.2h0ZM73.6,13.1c-.2.9-.7,1.6-1.4,2.2-.7.6-1.7.9-2.9.9s-1.8-.2-2.5-.6c-.7-.4-1.3-1-1.7-1.7-.4-.7-.6-1.6-.6-2.6s.2-1.8.6-2.6c.4-.7.9-1.3,1.6-1.7.7-.4,1.5-.6,2.4-.6s1.7.2,2.3.6c.6.4,1.1.9,1.4,1.5.3.6.5,1.3.5,2.1v1.1h-7.2c0,.9.4,1.6.9,2.2.6.5,1.3.8,2.2.8s1.3-.2,1.7-.5c.4-.3.7-.7.9-1.3h1.7ZM66.2,10.5h5.5c0-.8-.2-1.4-.6-1.9-.4-.5-1-.7-1.9-.7s-1.5.2-2,.7c-.5.4-.8,1.1-1,1.9h0Z"/>
        <path class="cls-1" d="M476.9,19.7c5.1,0,7.8-3.5,9.3-6.3.3-.6.6-1.2.9-1.7s.1-.3.2-.4c1.3-2.6,3.5-6.5,8.2-6.5,3.6,0,6.5,2.9,6.5,6.5,0,3.6-2.9,6.5-6.5,6.5-3.6,0-5.7-2.2-7.1-4.5-.3.6-.6,1.2-1.1,1.9,1.6,2.3,4.1,4.5,8.2,4.5,4.6,0,8.4-3.8,8.4-8.4,0-4.6-3.8-8.4-8.4-8.4-5.1,0-7.8,3.5-9.3,6.3-.3.6-.6,1.2-.9,1.7s-.1.3-.2.4c-1.3,2.6-3.5,6.5-8.2,6.5-3.6,0-6.5-2.9-6.5-6.5,0-3.6,2.9-6.5,6.5-6.5,3.6,0,5.7,2.2,7.1,4.5.3-.6.6-1.2,1.1-1.9-1.6-2.3-4.1-4.5-8.2-4.5-4.6,0-8.4,3.8-8.4,8.4,0,4.6,3.8,8.4,8.4,8.4Z"/>
        <line class="cls-2" x1="120.9" y1="11.3" x2="456.7" y2="11.3"/>
      </g>
    </g>
  </g>
</svg>