<?xml version="1.0" encoding="UTF-8"?>
<svg xmlns="http://www.w3.org/2000/svg" version="1.1" viewBox="0 0 504 139.4">
  <defs>
    <style>
      .cls-1 {
        fill: currentColor;
      }
    </style>
  </defs>
  <g>
    <g id="Layer_1">
      <g>
        <path class="cls-1" d="M54.3,0c10.7,0,19.8,3,27.5,10.4,2.5,2.3,4.5,1.7,4.9-1.5l.8-7.4h3.9l2.5,47.4h-3.9c-4.7-26.5-14.9-41.5-32.7-41.5s-36.8,26.3-36.8,61.3,13.7,60.8,36.8,60.8,32.7-20.3,36.2-47.2h4.9c-3.2,35-18.1,57.1-46.6,57.1S0,109,0,70.8,21.8,0,54.3,0Z"/>
        <path class="cls-1" d="M157.8,136.5l-.3-14.2-.5-.2c-5.7,9-13.7,17.3-25.6,17.3s-18.3-9.4-18.3-24.1v-47.2c0-10.9-.5-12.9-10.7-9.7l-1.2-3.7,25.8-8.4,2.3,2.2v65.2c0,9.9,3,14.6,9.4,14.6s13.4-5.7,18.8-12.9v-47.2c0-10.9-.3-12.9-10.7-9.7l-1.2-3.7,26-8.4,2.2,2.2v68.3c0,11.2.3,13.4,10.7,9.5l1.5,3.9-24.8,9.2-3.3-2.8Z"/>
        <path class="cls-1" d="M247.1,53.8c0,6.5-3.9,10.7-8.2,10.7s-4.4-1.2-6.5-3.5c-2.2-2.2-3-2.8-5-2.8-3.9,0-8.4,5.5-11.9,15.7v44.6c0,11.4,2.5,14.1,17.8,14.1v4.2h-45.2v-4c9.7,0,11.4-2.5,11.4-13.2v-51.6c0-11.2,0-13.6-10-9.4l-1.7-3.9,13.4-5.4,11.4-4.7,3,2.5v16.1h.5c4.7-8.9,12.9-18.3,22.1-18.3s9,3.3,9,8.9Z"/>
        <path class="cls-1" d="M276.4,119.4c0,10.7,1.7,13.2,11.9,13.2v4h-39.9v-4c10.2,0,11.9-2.5,11.9-13.2v-51.6c0-11.2-.2-13.6-9.9-9.5l-1.5-3.9,24.6-9.9,2.8,2.5v72.4ZM256.1,18.3c0-6,4.5-10.4,10.9-10.4s10.7,4.4,10.7,10.4-4.5,10.2-10.7,10.2-10.9-4.4-10.9-10.2Z"/>
        <path class="cls-1" d="M291.3,92.6c0-27,13.2-47.7,36-47.7s36,19.3,36,46.7-13.4,47.7-36,47.7-36-19.3-36-46.7ZM346.4,101.5c0-22.8-6.9-49.2-21.6-49.2s-16.7,15.7-16.7,30.5c0,22.8,7,49.2,21.8,49.2s16.6-15.7,16.6-30.5Z"/>
        <path class="cls-1" d="M420.3,136.5l-.3-14.2-.5-.2c-5.7,9-13.7,17.3-25.6,17.3s-18.3-9.4-18.3-24.1v-47.2c0-10.9-.5-12.9-10.7-9.7l-1.2-3.7,25.8-8.4,2.3,2.2v65.2c0,9.9,3,14.6,9.4,14.6s13.4-5.7,18.8-12.9v-47.2c0-10.9-.3-12.9-10.7-9.7l-1.2-3.7,26-8.4,2.2,2.2v68.3c0,11.2.3,13.4,10.7,9.5l1.5,3.9-24.8,9.2-3.3-2.8Z"/>
        <path class="cls-1" d="M461.6,133.3c-2.2-1.7-3.5-1.2-4.5.8l-1.3,3.3h-3.7l-1.2-36.2h3.7c2.5,19.9,12.1,31,23.6,31s12.1-5.4,12.1-13.9-3.5-10.7-19.1-23.3c-14.2-11.2-19.1-17.8-19.1-27.3,0-13.9,10-22.9,23.3-22.9s12.7,3.2,15.7,5.7c2.2,2,3.9,1.2,4.4-.8l1-3.7h3.9l.7,29.3h-3.7c-2-13.1-9.4-23.4-20.6-23.4s-11.1,4.5-11.1,11.2,4.4,10.7,16.1,19.9c15.1,11.9,22.3,19.1,22.3,31.8s-11.2,24.5-24.1,24.5-14.7-3.5-18.3-6Z"/>
      </g>
    </g>
  </g>
</svg>